<svg width="40" height="40" viewBox="0 0 40 40" fill="none" xmlns="http://www.w3.org/2000/svg">
<foreignObject x="-8" y="-8" width="56" height="56"><div xmlns="http://www.w3.org/1999/xhtml" style="backdrop-filter:blur(4px);clip-path:url(#bgblur_0_5031_76_clip_path);height:100%;width:100%"></div></foreignObject><circle data-figma-bg-blur-radius="8" cx="20" cy="20" r="20" fill="#ED952B"/>
<path d="M20.503 15.0117L20.437 14.9717C19.689 14.5167 19.031 14.1157 18.467 13.9137C18.1561 13.7942 17.8237 13.7407 17.491 13.7567C17.1408 13.7834 16.806 13.912 16.528 14.1267C15.949 14.5607 15.699 15.1997 15.562 15.9067C15.429 16.5917 15.378 17.4837 15.315 18.5697L15.312 18.6257C15.274 19.2757 15.25 19.9187 15.25 20.5017C15.25 21.0847 15.274 21.7287 15.312 22.3787L15.315 22.4337C15.378 23.5197 15.429 24.4117 15.562 25.0957C15.699 25.8037 15.949 26.4417 16.528 26.8767C16.814 27.0917 17.135 27.2197 17.491 27.2467C17.833 27.2717 18.161 27.1997 18.467 27.0897C19.031 26.8877 19.689 26.4867 20.437 26.0327L20.503 25.9927C20.929 25.7327 21.347 25.4657 21.72 25.2027C22.1768 24.8777 22.6221 24.5368 23.055 24.1807L23.105 24.1397C23.869 23.5167 24.517 22.9877 24.965 22.4677C25.453 21.8977 25.75 21.2857 25.75 20.5017C25.75 19.7177 25.453 19.1047 24.964 18.5357C24.517 18.0157 23.869 17.4857 23.106 16.8637L23.056 16.8227C22.602 16.4527 22.146 16.0987 21.72 15.8007C21.3227 15.5246 20.9169 15.2611 20.503 15.0107" fill="white"/>
<defs>
<clipPath id="bgblur_0_5031_76_clip_path" transform="translate(8 8)"><circle cx="20" cy="20" r="20"/>
</clipPath></defs>
</svg>
